<svg xmlns="http://www.w3.org/2000/svg" viewBox="0 0 20 12"> <defs>
    <style>.cls-1{fill:#000;}</style>
  </defs><g id="Layer_2" data-name="Layer 2"><g id="Layer_1-2" data-name="Layer 1"><g id="ab"><path class="cls-1" d="M.18,11.81A.66.66,0,0,1,0,11.32a1.37,1.37,0,0,1,.09-.44L3.87.77a1,1,0,0,1,1-.77,1,1,0,0,1,.64.2,1.35,1.35,0,0,1,.39.58l3.79,10.1a1.52,1.52,0,0,1,.08.43.65.65,0,0,1-.7.69.74.74,0,0,1-.49-.15,1.09,1.09,0,0,1-.29-.48l-1-2.87H2.51l-1,2.87a1.09,1.09,0,0,1-.29.48.76.76,0,0,1-.5.15A.65.65,0,0,1,.18,11.81ZM6.87,7.28l-2-5.44h0l-2,5.44Z"/><path d="M11.44,11.56a.78.78,0,0,1-.2-.56V1a.78.78,0,0,1,.2-.56A.69.69,0,0,1,12,.19h3.88a4.47,4.47,0,0,1,1.86.36,3,3,0,0,1,1.23,1A2.42,2.42,0,0,1,19.39,3a2.64,2.64,0,0,1-1.07,2.15,2.53,2.53,0,0,1-1.14.48v0a3.45,3.45,0,0,1,1.47.48,2.84,2.84,0,0,1,1,1A2.81,2.81,0,0,1,20,8.59a2.84,2.84,0,0,1-.49,1.67,3.31,3.31,0,0,1-1.41,1.11,5.58,5.58,0,0,1-2.2.4H12A.7.7,0,0,1,11.44,11.56Zm3.74-6.37a3.31,3.31,0,0,0,2-.52,1.73,1.73,0,0,0,.71-1.47A1.49,1.49,0,0,0,17.25,2a2.88,2.88,0,0,0-1.74-.47H12.76V5.19Zm.44,5.29A3.52,3.52,0,0,0,17.71,10a1.69,1.69,0,0,0,.73-1.45,1.79,1.79,0,0,0-.76-1.56,3.78,3.78,0,0,0-2.2-.54H12.76v4.08Z"/></g></g></g></svg>
