<svg xmlns="http://www.w3.org/2000/svg" viewBox="0 0 16.02 16.02">
  <defs>
    <style>.cls-1{fill:#000;}</style>
  </defs>
  <g id="Layer_2" data-name="Layer 2">
    <g id="Layer_2-2" data-name="Layer 2">
      <g id="add">
        <path id="Path_43" data-name="Path 43" class="cls-1"
              d="M.69,15.33a2.71,2.71,0,0,1-.68-2V2.7a2.71,2.71,0,0,1,.68-2A2.79,2.79,0,0,1,2.74,0H13.28a2.8,2.8,0,0,1,2.05.67,2.75,2.75,0,0,1,.68,2V13.31a2.75,2.75,0,0,1-.68,2,2.81,2.81,0,0,1-2.05.68H2.74A2.8,2.8,0,0,1,.69,15.33Zm3.36-6.8a.76.76,0,0,0,.56.2H7.26V11.4a.75.75,0,0,0,.2.55.68.68,0,0,0,.54.22.73.73,0,0,0,.76-.7V8.75h2.67a.85.85,0,0,0,.55-.2A.72.72,0,0,0,12.19,8,.75.75,0,0,0,12,7.46a.76.76,0,0,0-.55-.21H8.76V4.59A.74.74,0,0,0,8,3.81.72.72,0,0,0,7.46,4a.76.76,0,0,0-.2.56V7.25H4.6a.73.73,0,0,0-.55.21A.72.72,0,0,0,3.83,8a.67.67,0,0,0,.22.53Z"/>
      </g>
    </g>
  </g>
</svg>
