<svg xmlns="http://www.w3.org/2000/svg" viewBox="0 0 10 10"><defs><style>.cls-1{fill:#000;}</style></defs><g id="Layer_2" data-name="Layer 2"><g id="Layer_2-2" data-name="Layer 2"><g id="arrow_down" data-name="arrow down"><path id="Path_45-2" data-name="Path 45-2" class="cls-1" d="M.85.14A.5.5,0,0,0,.5,0,.5.5,0,0,0,0,.48v0A.5.5,0,0,0,.14.85L6.78,7.48l.72-.71ZM9.48,10a.39.39,0,0,0,.28,0,.34.34,0,0,0,.2-.19.45.45,0,0,0,0-.28L8.89,5.43a.57.57,0,0,0-.16-.27.31.31,0,0,0-.24-.1.34.34,0,0,0-.26.12L5.18,8.24a.33.33,0,0,0-.12.25.35.35,0,0,0,.1.24.57.57,0,0,0,.27.16Z"/></g></g></g></svg>
