<svg xmlns="http://www.w3.org/2000/svg" viewBox="0 0 10 10"><defs><style>.cls-1{fill:#000;}</style></defs><g id="Layer_2" data-name="Layer 2"><g id="Layer_2-2" data-name="Layer 2"><g id="arrow_up" data-name="arrow up"><path id="Path_45" data-name="Path 45" class="cls-1" d="M.85,9.86A.5.5,0,0,1,.5,10,.5.5,0,0,1,0,9.52v0a.5.5,0,0,1,.14-.35L6.78,2.52l.72.71ZM9.48,0a.39.39,0,0,1,.28,0,.34.34,0,0,1,.2.19.45.45,0,0,1,0,.28L8.89,4.57a.57.57,0,0,1-.16.27.31.31,0,0,1-.24.1.34.34,0,0,1-.26-.12L5.18,1.76a.33.33,0,0,1-.12-.25.35.35,0,0,1,.1-.24.57.57,0,0,1,.27-.16Z"/></g></g></g></svg>
