<svg xmlns="http://www.w3.org/2000/svg" viewBox="0 0 9 16">
  <defs>
    <style>.cls-1{fill:#000;}</style>
  </defs>
  <g id="Layer_2" data-name="Layer 2">
    <g id="Layer_2-2" data-name="Layer 2">
      <path id="back" class="cls-1"
            d="M.07,7.67a.87.87,0,0,1,.19-.28L7.56.24a.86.86,0,0,1,1-.13.79.79,0,0,1,.3.3A.82.82,0,0,1,9,.84a.86.86,0,0,1-.25.6L2.05,8l6.7,6.56a.86.86,0,0,1,.25.6.82.82,0,0,1-.12.43.72.72,0,0,1-.3.3.78.78,0,0,1-.42.11.75.75,0,0,1-.6-.25L.26,8.61a1,1,0,0,1-.2-.28.94.94,0,0,1,0-.66Z"/>
    </g>
  </g>
</svg>
