<svg xmlns="http://www.w3.org/2000/svg" viewBox="0 0 20 12"> <defs>
    <style>.cls-1{fill:#000;}</style>
  </defs><g id="Layer_2" data-name="Layer 2"><g id="Layer_1-2" data-name="Layer 1"><g id="ba"><path class="cls-1" d="M10.39,11.81a.66.66,0,0,1-.18-.49,1.65,1.65,0,0,1,.08-.44L14.08.77a1,1,0,0,1,1-.77,1,1,0,0,1,.64.2,1.28,1.28,0,0,1,.4.58l3.78,10.1a1.27,1.27,0,0,1,.09.43.66.66,0,0,1-.19.5.69.69,0,0,1-.51.19.72.72,0,0,1-.49-.15,1,1,0,0,1-.29-.48L17.47,8.5H12.71l-1,2.87a1,1,0,0,1-.29.48.73.73,0,0,1-.5.15A.63.63,0,0,1,10.39,11.81Zm6.68-4.53-2-5.44h0l-2,5.44Z"/><path d="M.2,11.56A.78.78,0,0,1,0,11V1A.78.78,0,0,1,.2.39.72.72,0,0,1,.74.19H4.62A4.47,4.47,0,0,1,6.48.55a3,3,0,0,1,1.23,1A2.42,2.42,0,0,1,8.16,3,2.69,2.69,0,0,1,7.08,5.13,2.54,2.54,0,0,1,6,5.61v0a3.45,3.45,0,0,1,1.46.48,2.84,2.84,0,0,1,1,1,2.81,2.81,0,0,1,.36,1.43,2.84,2.84,0,0,1-.49,1.67,3.31,3.31,0,0,1-1.41,1.11,5.58,5.58,0,0,1-2.2.4H.74A.73.73,0,0,1,.2,11.56ZM4,5.19a3.28,3.28,0,0,0,2-.52A1.73,1.73,0,0,0,6.64,3.2,1.49,1.49,0,0,0,6,2a2.87,2.87,0,0,0-1.73-.47H1.52V5.19Zm.43,5.29A3.52,3.52,0,0,0,6.47,10,1.69,1.69,0,0,0,7.2,8.5a1.79,1.79,0,0,0-.76-1.56,3.78,3.78,0,0,0-2.2-.54H1.52v4.08Z"/></g></g></g></svg>
