<svg xmlns="http://www.w3.org/2000/svg" viewBox="0 0 10 20">
<defs>
    <style>.cls-1{fill:#000;}</style>
  </defs>
  <g id="Layer_2" data-name="Layer 2"><g id="Layer_3" data-name="Layer 3"><g id="bs"><path
  class="cls-1" id="Rectangle_2" data-name="Rectangle 2" d="M1.67,0h0A1.66,1.66,0,0,1,3.33,1.67V18.33A1.66,1.66,0,0,1,1.67,20h0A1.67,1.67,0,0,1,0,18.33V1.67A1.67,1.67,0,0,1,1.67,0Z"/><path id="Rectangle_3" data-name="Rectangle 3" d="M8.33,6.67h0A1.66,1.66,0,0,1,10,8.33v10A1.67,1.67,0,0,1,8.33,20h0a1.66,1.66,0,0,1-1.66-1.67v-10A1.66,1.66,0,0,1,8.33,6.67Z"/></g></g></g></svg>
