<svg xmlns="http://www.w3.org/2000/svg" viewBox="0 0 20 18"><defs><style>.cls-1{fill:#000;}</style></defs><g id="Layer_2" data-name="Layer 2"><g id="Layer_4" data-name="Layer 4"><g id="Calculator"><path class="cls-1" d="M.55,9.9a1.07,1.07,0,0,1-.4-.39A1.06,1.06,0,0,1,0,9a1,1,0,0,1,.15-.54A1.1,1.1,0,0,1,.55,8a1,1,0,0,1,.53-.14H18.92a1.09,1.09,0,0,1,.54.14A1.13,1.13,0,0,1,20,9a1.06,1.06,0,0,1-.15.55,1,1,0,0,1-.39.39,1,1,0,0,1-.54.15H1.08A1,1,0,0,1,.55,9.9ZM8.73,3.05a1.75,1.75,0,0,1-.52-1.26A1.76,1.76,0,0,1,8.73.52a1.81,1.81,0,0,1,2.54,0,1.76,1.76,0,0,1,.52,1.27,1.75,1.75,0,0,1-.52,1.26,1.79,1.79,0,0,1-2.54,0Zm0,14.42a1.75,1.75,0,0,1-.52-1.26A1.79,1.79,0,0,1,11.27,15a1.72,1.72,0,0,1,.52,1.26,1.75,1.75,0,0,1-.52,1.26,1.79,1.79,0,0,1-2.54,0Z"/></g></g></g></svg>
