<svg xmlns="http://www.w3.org/2000/svg" viewBox="0 0 16 16"><defs><style>.cls-1{fill:#6c757d;}</style></defs><g id="Layer_2" data-name="Layer 2"><g id="Layer_2-2" data-name="Layer 2"><g id="clear"><path id="Path_10" data-name="Path 10" class="cls-1" d="M4.91,15.37A8.21,8.21,0,0,1,.63,11.09a7.89,7.89,0,0,1,0-6.18A8.14,8.14,0,0,1,4.91.63a7.87,7.87,0,0,1,6.17,0,8.2,8.2,0,0,1,4.29,4.28,7.89,7.89,0,0,1,0,6.18,8.21,8.21,0,0,1-4.28,4.28,7.89,7.89,0,0,1-6.18,0Zm.8-4.15L8,8.92l2.3,2.3a.61.61,0,0,0,.46.2.58.58,0,0,0,.46-.19.63.63,0,0,0,.19-.47.68.68,0,0,0-.19-.46L8.92,8l2.31-2.3a.68.68,0,0,0,.19-.47.65.65,0,0,0-.65-.64h0a.57.57,0,0,0-.44.2L8,7.11,5.69,4.81a.57.57,0,0,0-.46-.19.59.59,0,0,0-.45.18.66.66,0,0,0,0,.92L7.08,8l-2.3,2.3a.62.62,0,0,0-.19.45.68.68,0,0,0,.19.47.64.64,0,0,0,.45.19.67.67,0,0,0,.48-.21Z"/></g></g></g></svg>