<svg xmlns="http://www.w3.org/2000/svg" viewBox="0 0 16 16"><defs><style>.cls-1{fill:#000;}</style></defs><g id="Layer_2" data-name="Layer 2"><g id="Layer_4" data-name="Layer 4"><g id="copy"><path class="cls-1" d="M9.3,5.27a3.24,3.24,0,0,1,.84.61,4.45,4.45,0,0,1,1.22,2,4.07,4.07,0,0,1,0,2.19,4.58,4.58,0,0,1-1.21,2L7.57,14.65a4.69,4.69,0,0,1-2,1.2,4.07,4.07,0,0,1-2.19,0,4.62,4.62,0,0,1-2-1.22,4.58,4.58,0,0,1-1.21-2,4.07,4.07,0,0,1,0-2.19,4.67,4.67,0,0,1,1.21-2l2.22-2.2a2.46,2.46,0,0,0,0,.77,2.19,2.19,0,0,0,.2.76L2.28,9.24a3.31,3.31,0,0,0-.88,1.45,3,3,0,0,0,0,1.58,3.34,3.34,0,0,0,.88,1.46,3.38,3.38,0,0,0,1.45.87,3,3,0,0,0,1.59,0,3.19,3.19,0,0,0,1.45-.87l2.46-2.45a3.19,3.19,0,0,0,.87-1.45,2.83,2.83,0,0,0,0-1.58,3.41,3.41,0,0,0-.87-1.46,3,3,0,0,0-.88-.59,4.21,4.21,0,0,0-1.26-.27l1-1A4.22,4.22,0,0,1,9.3,5.27ZM6.7,10.73a3.24,3.24,0,0,1-.84-.61,4.45,4.45,0,0,1-1.22-2,4.07,4.07,0,0,1,0-2.19,4.58,4.58,0,0,1,1.21-2L8.43,1.36a4.61,4.61,0,0,1,2-1.21,4.07,4.07,0,0,1,2.19,0,4.62,4.62,0,0,1,2,1.22,4.58,4.58,0,0,1,1.21,2,4.07,4.07,0,0,1,0,2.19,4.67,4.67,0,0,1-1.21,2l-2.22,2.2a2.46,2.46,0,0,0,0-.77,2.25,2.25,0,0,0-.2-.76l1.48-1.47a3.31,3.31,0,0,0,.88-1.45,3,3,0,0,0,0-1.58,3.31,3.31,0,0,0-.88-1.45,3.36,3.36,0,0,0-1.45-.88,3,3,0,0,0-1.59,0,3.19,3.19,0,0,0-1.45.87L6.77,4.73a3.31,3.31,0,0,0-.88,1.45,3,3,0,0,0,0,1.58,3.34,3.34,0,0,0,.88,1.46,2.83,2.83,0,0,0,.88.59,4.21,4.21,0,0,0,1.26.27l-1,1A4.22,4.22,0,0,1,6.7,10.73Z"/></g></g></g></svg>
