<svg xmlns="http://www.w3.org/2000/svg" viewBox="0 0 24 18"><g id="Layer_2" data-name="Layer 2"><g id="Layer_1-2" data-name="Layer 1"><path id="Delete" d="M11.24,18h-.9a7.88,7.88,0,0,1-1.2-.1,4.35,4.35,0,0,1-1.23-.41,3.89,3.89,0,0,1-1-.75.73.73,0,0,1-.09-.09c-.12-.12-.21-.2-.34-.34L6.1,16,3.82,13.68l-.18-.18-.24-.23L1.33,11.2l-.09-.1-.1-.1L1,10.84c-.17-.18-.33-.36-.49-.55a1.8,1.8,0,0,1-.34-.52l0-.06a2.3,2.3,0,0,1,0-1.42l0-.06A1.72,1.72,0,0,1,.48,7.7c.15-.18.31-.36.48-.53L1.15,7l.05-.05.14-.13L3.41,4.72l.06-.06,0,0,0,0,0,0,0,0,.19-.19L5.05,3.08h0l1-1,0,0,.34-.34.31-.3,0,0,.08-.08A4.23,4.23,0,0,1,7.91.52,4.45,4.45,0,0,1,9.14.11,9.39,9.39,0,0,1,10.33,0h8.92a8.09,8.09,0,0,1,1.2.1,4.28,4.28,0,0,1,1.22.41,4.06,4.06,0,0,1,1.06.77,4.23,4.23,0,0,1,.77,1.06,4.43,4.43,0,0,1,.4,1.23A7.83,7.83,0,0,1,24,4.76v8.11a2.73,2.73,0,0,1,0,.32,8.12,8.12,0,0,1-.1,1.21,4.52,4.52,0,0,1-.41,1.24,4.23,4.23,0,0,1-.77,1.06,3.92,3.92,0,0,1-1.07.78,4.88,4.88,0,0,1-1.24.41,8,8,0,0,1-1.2.1h-8Zm-.4-16.66h-.49a8.28,8.28,0,0,0-1,.09,2.93,2.93,0,0,0-.85.28,2.68,2.68,0,0,0-.72.53h0l0,0h0l-.08.08-.28.27-.2.19,0,.06L7,3l-2.3,2.3-.06,0-.13.14-.1.1-.1.09L2.29,7.73l-.14.14L2.07,8,2,8H2l-.07.08a4.58,4.58,0,0,0-.42.46l0,0-.08.12a1,1,0,0,0,0,.54l.08.12.05,0a4.69,4.69,0,0,0,.43.47l.15.15.1.1.05.05,0,0,0,0,2.07,2.07.2.2.13.13h0l0,.05L7.05,15l.3.3h0l0,0c.12.12.19.2.27.27l.08.08,0,0,0,0a3,3,0,0,0,.71.52,3.14,3.14,0,0,0,.85.28,8.26,8.26,0,0,0,1,.09h8.82a8.26,8.26,0,0,0,1-.09,3.21,3.21,0,0,0,.86-.28,3,3,0,0,0,.73-.53,2.91,2.91,0,0,0,.53-.72,3.21,3.21,0,0,0,.28-.86,8.78,8.78,0,0,0,.09-1V4.79a8.28,8.28,0,0,0-.09-1A2.83,2.83,0,0,0,22.31,3a2.79,2.79,0,0,0-1.24-1.24,3.08,3.08,0,0,0-.84-.28,8.44,8.44,0,0,0-1-.09H11.44a5.67,5.67,0,0,0-.59,0Zm6.38,11.19h0L14.53,9.84l-2.7,2.7h0a.64.64,0,0,1-.19.13.6.6,0,0,1-.78-.34.59.59,0,0,1,.13-.64h0l.1-.08L13.68,9,11,6.3h0a.59.59,0,0,1,0-.84.61.61,0,0,1,.8,0h0l.07.09,2.61,2.61,2.62-2.62a.6.6,0,0,1,1.09.34.59.59,0,0,1-.17.42h0L15.37,9,18,11.6l.09.08h0a.6.6,0,0,1-.84.85Z"/></g></g></svg>