<svg xmlns="http://www.w3.org/2000/svg" viewBox="0 0 40 40"><defs><style>.cls-1{fill:#31b651;}.cls-2{fill:#36f;}.cls-3{fill:#fff;}</style></defs><g id="bch"><circle id="Ellipse_1" data-name="Ellipse 1" class="cls-1" cx="20" cy="20" r="20"/></g><g id="eur"><circle id="Ellipse_1-2" data-name="Ellipse 1" class="cls-2" cx="19.94" cy="20" r="20"/><path class="cls-3" d="M9,16.43H24.62v2.05H9Zm0,5H24.62v2.05H9Zm10.34,9.88a10.41,10.41,0,0,1-3.7-2.19,10.12,10.12,0,0,1-2.52-3.74A14.17,14.17,0,0,1,12.2,20v0a14.21,14.21,0,0,1,.92-5.34,10,10,0,0,1,2.53-3.73,10.13,10.13,0,0,1,3.7-2.19A13.75,13.75,0,0,1,23.78,8a16.54,16.54,0,0,1,1.8.1A6,6,0,0,1,27,8.38v2.77a9.24,9.24,0,0,0-1.44-.22c-.62-.06-1.22-.09-1.78-.09a10.3,10.3,0,0,0-3.39.55,7.41,7.41,0,0,0-2.7,1.68,7.69,7.69,0,0,0-1.8,2.86,12,12,0,0,0-.63,4.1v0a11.53,11.53,0,0,0,.64,4.06A7.79,7.79,0,0,0,17.69,27a7.37,7.37,0,0,0,2.7,1.66,10.3,10.3,0,0,0,3.39.54c.56,0,1.16,0,1.78-.08A7.19,7.19,0,0,0,27,28.85v2.77a6,6,0,0,1-1.42.28,16.54,16.54,0,0,1-1.8.1A13.59,13.59,0,0,1,19.34,31.28Z"/></g></svg>