<svg xmlns="http://www.w3.org/2000/svg" viewBox="0 0 16 10"><defs><style>.cls-1{fill:#6c757d;}</style></defs><g id="Layer_2" data-name="Layer 2"><g id="Layer_2-2" data-name="Layer 2"><g id="eye"><path id="Path_8" data-name="Path 8" class="cls-1" d="M5.79,9.72A9.73,9.73,0,0,1,3.85,9a10.32,10.32,0,0,1-1.6-1A9.25,9.25,0,0,1,1,6.82a4.92,4.92,0,0,1-.77-1,1.26,1.26,0,0,1,0-1.56,5.49,5.49,0,0,1,.77-1A9.25,9.25,0,0,1,2.25,2.05a10.32,10.32,0,0,1,1.6-1A9.73,9.73,0,0,1,5.79.28a9,9,0,0,1,4.44,0A9.73,9.73,0,0,1,12.17,1a10.32,10.32,0,0,1,1.6,1A9.94,9.94,0,0,1,15,3.18a6.45,6.45,0,0,1,.76,1,1.29,1.29,0,0,1,0,1.56,5.67,5.67,0,0,1-.76,1A9.85,9.85,0,0,1,13.78,8a10.32,10.32,0,0,1-1.6,1,9.59,9.59,0,0,1-1.95.75A8.79,8.79,0,0,1,8,10,8.64,8.64,0,0,1,5.79,9.72ZM9.29,8a3.42,3.42,0,0,0,1.05-.71,3.54,3.54,0,0,0,.71-1A3,3,0,0,0,11.3,5a3.11,3.11,0,0,0-.25-1.28,3.42,3.42,0,0,0-.71-1.05A3.22,3.22,0,0,0,9.29,2,3.49,3.49,0,0,0,6.71,2a3.22,3.22,0,0,0-1,.7A3.42,3.42,0,0,0,5,3.72,3.11,3.11,0,0,0,4.7,5,3.23,3.23,0,0,0,5,6.26a3.33,3.33,0,0,0,.7,1,3.42,3.42,0,0,0,1,.71A3.37,3.37,0,0,0,9.28,8ZM7.15,5.83a1.16,1.16,0,0,1,0-1.64l0,0a1.2,1.2,0,0,1,1.7,0,1.16,1.16,0,0,1,0,1.64l0,0A1.2,1.2,0,0,1,7.15,5.83Z"/></g></g></g></svg>