<svg xmlns="http://www.w3.org/2000/svg" viewBox="0 0 16 10.78"><defs><style>.cls-1{fill:#6c757d;}</style></defs><g id="Layer_2" data-name="Layer 2"><g id="Layer_2-2" data-name="Layer 2"><g id="eye_slash" data-name="eye slash"><path id="Path_44" data-name="Path 44" class="cls-1" d="M5.79,10.26a9.73,9.73,0,0,1-1.94-.75,10.38,10.38,0,0,1-1.6-1A9.18,9.18,0,0,1,1,7.36,5.25,5.25,0,0,1,.27,6.31,1.7,1.7,0,0,1,0,5.53a1.64,1.64,0,0,1,.21-.68A5.42,5.42,0,0,1,.81,4a8.1,8.1,0,0,1,1-1A9,9,0,0,1,3,2l2,2a3.75,3.75,0,0,0-.25.71,3.31,3.31,0,0,0-.09.77A3.24,3.24,0,0,0,5,6.8a3.54,3.54,0,0,0,.71,1,3.3,3.3,0,0,0,3.1.88,3.38,3.38,0,0,0,.69-.26L11,10a10.07,10.07,0,0,1-1.43.39A9.16,9.16,0,0,1,8,10.55,8.65,8.65,0,0,1,5.79,10.26ZM2.71.78a.47.47,0,0,1,0-.65A.49.49,0,0,1,3,0a.48.48,0,0,1,.32.13L13.23,10a.45.45,0,0,1,.14.32.47.47,0,0,1-.14.33.44.44,0,0,1-.64,0Zm8.31,6a3,3,0,0,0,.21-.6,2.81,2.81,0,0,0,.07-.65A3.2,3.2,0,0,0,11,4.24a3.06,3.06,0,0,0-.71-1,3.12,3.12,0,0,0-1.05-.7A3.29,3.29,0,0,0,8,2.24a3.7,3.7,0,0,0-.66.07,4.31,4.31,0,0,0-.61.19L5.2,1A9,9,0,0,1,6.54.64,8.83,8.83,0,0,1,10.23.8a9.82,9.82,0,0,1,3.54,1.78A8.47,8.47,0,0,1,15,3.7a5.67,5.67,0,0,1,.77,1,2,2,0,0,1,.26.78,2,2,0,0,1-.36.94,6.58,6.58,0,0,1-1,1.24,9.36,9.36,0,0,1-1.5,1.23ZM6.12,5.27s0-.09,0-.13L8.25,7.26H8a1.78,1.78,0,0,1-1-.25,1.85,1.85,0,0,1-.68-.68,1.82,1.82,0,0,1-.26-.94.24.24,0,0,1,0-.12Zm3.76.25a.37.37,0,0,1,0,.11L7.78,3.54h.11a.41.41,0,0,1,.11,0A1.73,1.73,0,0,1,9,3.79a1.82,1.82,0,0,1,.68.67,1.88,1.88,0,0,1,.25,1,.37.37,0,0,0,0,.11Z"/></g></g></g></svg>