<svg xmlns="http://www.w3.org/2000/svg" viewBox="0 0 40 40"><g id="Layer_2" data-name="Layer 2"><g id="Layer_5" data-name="Layer 5"><g id="faceid"><path d="M0,11.32v-5A6.4,6.4,0,0,1,1.6,1.58,6.62,6.62,0,0,1,6.41,0h5a1.46,1.46,0,0,1,1.67,1.64A1.46,1.46,0,0,1,11.4,3.29H6.46a3.18,3.18,0,0,0-2.35.81,3.22,3.22,0,0,0-.82,2.4v4.82a1.72,1.72,0,0,1-.42,1.24A1.64,1.64,0,0,1,1.63,13,1.46,1.46,0,0,1,0,11.32Zm1.6,27.1A6.41,6.41,0,0,1,0,33.66v-5A1.46,1.46,0,0,1,1.63,27a1.47,1.47,0,0,1,1.66,1.68V33.5a3.22,3.22,0,0,0,.82,2.4,3.18,3.18,0,0,0,2.35.81H11.4a1.7,1.7,0,0,1,1.25.43,1.66,1.66,0,0,1,.42,1.22A1.46,1.46,0,0,1,11.4,40h-5A6.62,6.62,0,0,1,1.6,38.42ZM11,18.16a1.64,1.64,0,0,1-.46-1.2V14.18A1.64,1.64,0,0,1,11,13a1.64,1.64,0,0,1,2.81,1.19V17a1.6,1.6,0,0,1-.46,1.2,1.73,1.73,0,0,1-2.35,0ZM16.2,29.59a7.81,7.81,0,0,1-3-2.14,1.62,1.62,0,0,1-.31-.46,1.21,1.21,0,0,1-.1-.5,1.27,1.27,0,0,1,.39-.95,1.3,1.3,0,0,1,1-.38,1.11,1.11,0,0,1,.6.16,4.11,4.11,0,0,1,.48.39,6.33,6.33,0,0,0,2.14,1.43,6.5,6.5,0,0,0,2.56.54,6.58,6.58,0,0,0,2.62-.55,6.23,6.23,0,0,0,2.1-1.42,1.44,1.44,0,0,1,1.06-.55,1.31,1.31,0,0,1,.94.38,1.27,1.27,0,0,1,.39.95,1.38,1.38,0,0,1-.1.55,1.21,1.21,0,0,1-.27.43,9.68,9.68,0,0,1-3.13,2.1,9.36,9.36,0,0,1-3.61.74A9.92,9.92,0,0,1,16.2,29.59Zm1-6.51a1.28,1.28,0,0,1-.43-1,1.3,1.3,0,0,1,.38-.93,1.26,1.26,0,0,1,.93-.37h.71a.34.34,0,0,0,.23-.08.29.29,0,0,0,.08-.23V13.82a1.24,1.24,0,0,1,.37-1,1.47,1.47,0,0,1,1.93,0,1.27,1.27,0,0,1,.36,1v6.44a3.25,3.25,0,0,1-.82,2.37,3.24,3.24,0,0,1-2.37.81h-.18A1.8,1.8,0,0,1,17.16,23.08Zm9.37-4.92a1.6,1.6,0,0,1-.46-1.2V14.18A1.6,1.6,0,0,1,26.53,13a1.55,1.55,0,0,1,1.17-.46,1.59,1.59,0,0,1,1.18.46,1.64,1.64,0,0,1,.46,1.19V17a1.64,1.64,0,0,1-.46,1.2,1.59,1.59,0,0,1-1.18.46A1.55,1.55,0,0,1,26.53,18.16Zm10.18-6.84V6.5a3.19,3.19,0,0,0-.84-2.4,3.24,3.24,0,0,0-2.35-.81H28.58a1.66,1.66,0,0,1-1.23-.43,1.66,1.66,0,0,1-.42-1.22A1.46,1.46,0,0,1,28.58,0h5A6.62,6.62,0,0,1,38.4,1.58,6.4,6.4,0,0,1,40,6.32v5a1.65,1.65,0,1,1-3.29,0Zm-9.78,27a1.46,1.46,0,0,1,1.65-1.65h4.94a3.24,3.24,0,0,0,2.35-.81,3.19,3.19,0,0,0,.84-2.4V28.68a1.72,1.72,0,0,1,.42-1.25A1.61,1.61,0,0,1,38.35,27,1.47,1.47,0,0,1,40,28.68v5a6.41,6.41,0,0,1-1.6,4.76A6.62,6.62,0,0,1,33.59,40h-5A1.46,1.46,0,0,1,26.93,38.36Z"/></g></g></g></svg>