<svg xmlns="http://www.w3.org/2000/svg" viewBox="0 0 16 16"><g id="Layer_2" data-name="Layer 2"><g id="Layer_4" data-name="Layer 4"><g id="Info"><path id="Path_58" data-name="Path 58" d="M4.91,15.37A8.21,8.21,0,0,1,.63,11.09a7.89,7.89,0,0,1,0-6.18A8.19,8.19,0,0,1,4.91.63a7.87,7.87,0,0,1,6.17,0,8.2,8.2,0,0,1,4.29,4.28,7.89,7.89,0,0,1,0,6.18,8.21,8.21,0,0,1-4.28,4.28A7.89,7.89,0,0,1,4.91,15.37Zm5-2.91a.61.61,0,0,0,.42-.17.52.52,0,0,0,.17-.41.56.56,0,0,0-.17-.4.59.59,0,0,0-.42-.17h-1V7.21a.83.83,0,0,0-.16-.53.59.59,0,0,0-.48-.2H6.71a.58.58,0,0,0-.41.17.56.56,0,0,0,0,.8v0a.62.62,0,0,0,.41.16h.87v3.69h-1a.63.63,0,0,0-.43.17.54.54,0,0,0-.17.4.58.58,0,0,0,.17.41.62.62,0,0,0,.43.16ZM8.67,4.82A1.09,1.09,0,0,0,9,4.07a1.07,1.07,0,0,0-.3-.76,1.05,1.05,0,1,0-.75,1.82,1,1,0,0,0,.75-.31Z"/></g></g></g></svg>