<svg xmlns="http://www.w3.org/2000/svg" viewBox="0 0 21.34 20">
  <g id="Layer_2" data-name="Layer 2">
    <g id="Layer_5" data-name="Layer 5">
      <g id="Secusity_dark">
<!--        <path d="M.5,19.49A2.19,2.19,0,0,1,0,17.91V10.38A1.87,1.87,0,0,1,.61,8.83a2.41,2.41,0,0,1,1.61-.51L12,8.3a2,2,0,0,1,1.51.51,2.17,2.17,0,0,1,.5,1.57v7.53a2.19,2.19,0,0,1-.5,1.58A2,2,0,0,1,12,20H2A2,2,0,0,1,.5,19.49Z"/>-->
        <path fill="#000" d="M10.67,5.73a6.52,6.52,0,0,1,.45-2.52,4.86,4.86,0,0,1,1.2-1.79A5,5,0,0,1,14,.35a5.8,5.8,0,0,1,4,0A4.94,4.94,0,0,1,19.7,1.42a4.86,4.86,0,0,1,1.2,1.79,6.71,6.71,0,0,1,.44,2.52V9H19.65V5.52a4.33,4.33,0,0,0-.5-2.17A3.4,3.4,0,0,0,17.82,2,3.94,3.94,0,0,0,14.2,2a3.36,3.36,0,0,0-1.34,1.33,4.33,4.33,0,0,0-.5,2.17V9H10.67Z"/>
      </g>
    </g>
  </g>
</svg>
