<svg xmlns="http://www.w3.org/2000/svg" viewBox="0 0 20 14">
<defs>
    <style>.cls-1{fill:#000;}</style>
  </defs>
<g id="Layer_2" data-name="Layer 2"><g id="Layer_1-2" data-name="Layer 1">
<path  class="cls-1" id="move" d="M12.63,14a1,1,0,0,1-.63-.2.62.62,0,0,1-.25-.47v-.26l4.84-4.52a2.24,2.24,0,0,0,.54-.72A1.81,1.81,0,0,0,17.32,7a1.84,1.84,0,0,0-.19-.83,2.24,2.24,0,0,0-.54-.72L11.75,1V.7A.64.64,0,0,1,12,.22,1.09,1.09,0,0,1,13.15.13a3,3,0,0,1,.52.42l6,5.63a1.25,1.25,0,0,1,.3.42,1,1,0,0,1,0,.8,1.25,1.25,0,0,1-.3.42l-6,5.68a1.89,1.89,0,0,1-.51.38A1.18,1.18,0,0,1,12.63,14ZM8.89,14a.85.85,0,0,1-.64-.25A.88.88,0,0,1,8,13.1V10.19H7.79a9.85,9.85,0,0,0-2.59.29,5.13,5.13,0,0,0-2,1,6.14,6.14,0,0,0-1.51,2,1,1,0,0,1-.44.46,1.19,1.19,0,0,1-.49.1.7.7,0,0,1-.54-.26A1.1,1.1,0,0,1,0,13a14.75,14.75,0,0,1,.46-3.8,7.85,7.85,0,0,1,1.4-2.89A6.16,6.16,0,0,1,4.28,4.45a9,9,0,0,1,3.51-.64H8V.93A.87.87,0,0,1,8.26.28.8.8,0,0,1,8.9,0a1,1,0,0,1,.5.13,2.61,2.61,0,0,1,.52.41l5.95,5.63a1.31,1.31,0,0,1,.3.41,1,1,0,0,1,.09.42,1,1,0,0,1-.09.41,1.17,1.17,0,0,1-.3.4L9.92,13.49a2.12,2.12,0,0,1-.51.38A1.17,1.17,0,0,1,8.89,14Z"/></g></g></svg>
