<svg xmlns="http://www.w3.org/2000/svg" viewBox="0 0 200.62 239.34"><defs><style>.cls-1{fill:#f8f9fa;}.cls-2{fill:#00d58e;}.cls-3{fill:#151a30;}.cls-4{fill:#36f;}.cls-5{fill:none;stroke:#151a30;stroke-linecap:round;stroke-miterlimit:10;stroke-width:2.06px;}</style></defs><g id="Layer_2" data-name="Layer 2"><g id="Layer_1-2" data-name="Layer 1"><g id="Group_60" data-name="Group 60"><g id="Group_51" data-name="Group 51"><ellipse id="Ellipse_13" data-name="Ellipse 13" class="cls-1" cx="40.97" cy="181.06" rx="40.97" ry="58.28"/></g><path id="Path_30" data-name="Path 30" class="cls-2" d="M46.77,116s-2.56-4.27-4.91-4.49S11.53,128.82,7.26,138s-8.33,27.48,3,45.13c11.06,17.17,28.38,16.6,37.35,15.75s15-3.78,24.11-11.09,17.44-18.05,18.66-25.35-3.25-11.35-6.09-12.37-19.26-.81-31.23-13S46.77,116,46.77,116Z"/><path id="Path_31" data-name="Path 31" class="cls-3" d="M50.4,110.45s-7.26,2.78-11.74,7.69-7.27,12.61-7.48,23.93,3.42,24.14,17.52,29.69S75.4,173,79.46,169.2s9-14.74,9-14.74-22.43,6-33.11-6.62S50.4,110.45,50.4,110.45Z"/><g id="Group_54" data-name="Group 54"><g id="Group_53" data-name="Group 53"><path id="Path_32" data-name="Path 32" class="cls-3" d="M175.88,118.34c-5.47-8.21-18.56-10.65-28.9-14s-16.43-10-13.69-26.47,17-43.2,16.73-48.07-49.28-4.56-53.84-3S90.7,28,86.44,33.46a76.18,76.18,0,0,0-6.39,9.43l5.29-11.1.38,0a14.05,14.05,0,0,1,2.41-4A30.8,30.8,0,0,0,95.59,8.45C95.79-2,88.34-1,86.93,2.21s-9.67,14.3-12.09,17.32-7.45,11.28-7.45,11.28L61.8,50.19S60.58,56,53.58,77.88s-3.95,31.94-3.95,31.94-1.83-.91-6.09,12.17-2.43,29.81,5.17,37.72,17.65,7.61,28.9,3A34.58,34.58,0,0,0,94,148.16s11.87-3,20.69-9.74,15.52-13.69,28.29-13.08,27.38,7.91,32.25,7.61S181.36,126.55,175.88,118.34Z"/></g><path id="Path_35" data-name="Path 35" class="cls-4" d="M176,133.88s.64-2.56-6.62-6-10.25-1.07-10.25.64S174.93,133.88,176,133.88Z"/></g><path id="Path_36" data-name="Path 36" class="cls-3" d="M107.26,15.71,88.94,29.81h24.57S113.51,12.48,107.26,15.71Z"/><g id="Group_56" data-name="Group 56"><rect id="Rectangle_16" data-name="Rectangle 16" class="cls-1" x="47.15" y="28.59" width="138.48" height="87.28" rx="15"/><g id="Group_55" data-name="Group 55"><line id="Line_24" data-name="Line 24" class="cls-5" x1="62.18" y1="57.88" x2="165.96" y2="57.88"/><line id="Line_25" data-name="Line 25" class="cls-5" x1="62.18" y1="68.57" x2="165.96" y2="68.57"/><line id="Line_26" data-name="Line 26" class="cls-5" x1="62.18" y1="79.25" x2="165.96" y2="79.25"/><line id="Line_27" data-name="Line 27" class="cls-5" x1="62.18" y1="89.93" x2="165.96" y2="89.93"/></g></g><g id="Group_57" data-name="Group 57"><path id="Path_37" data-name="Path 37" class="cls-3" d="M135.41,22.15s.4,8.05,7.66,11.88,16.51,3,16.71-1.81-5.44-9.87-9.26-16.31-12.29-2.82-15.91,1.61"/><path id="Path_38" data-name="Path 38" class="cls-4" d="M147.9,28.59c-.6,3.23,1.61,5,3.62,6s6,.4,8.26-2.41c.1-2.35-1.19-4.76-3-7.34C154.26,25.16,148.37,26.07,147.9,28.59Z"/></g><g id="Group_58" data-name="Group 58"><path id="Path_39" data-name="Path 39" class="cls-3" d="M120.31,22.15S120.71,30.2,128,34s16.52,3,16.72-1.81-5.44-9.87-9.27-16.31-12.28-2.82-15.9,1.61"/><path id="Path_40" data-name="Path 40" class="cls-4" d="M132.8,28.59c-.6,3.23,1.61,5,3.62,6s6,.4,8.26-2.41c.1-2.35-1.2-4.76-3-7.34C139.16,25.16,133.27,26.07,132.8,28.59Z"/></g><g id="Group_59" data-name="Group 59"><path id="Path_41" data-name="Path 41" class="cls-3" d="M106.26,22.15s.4,8.05,7.65,11.88,16.51,3,16.71-1.81-5.44-9.87-9.26-16.31-12.29-2.82-15.91,1.61"/><path id="Path_42" data-name="Path 42" class="cls-4" d="M118.74,28.59c-.6,3.23,1.61,5,3.63,6s6,.4,8.25-2.41c.1-2.35-1.19-4.76-3-7.34C125.1,25.16,119.21,26.07,118.74,28.59Z"/></g><circle id="Ellipse_14" data-name="Ellipse 14" class="cls-2" cx="185.62" cy="28.59" r="15"/></g></g></g></svg>
