<svg xmlns="http://www.w3.org/2000/svg" viewBox="0 0 20.02 16.04"><defs><style>.cls-1{fill:#000;}</style></defs><g id="Layer_2" data-name="Layer 2"><g id="Layer_2-2" data-name="Layer 2"><g id="open"><path id="Path_5" data-name="Path 5" class="cls-1" d="M17.39,12.46H12.8v1A2.32,2.32,0,0,1,10.71,16a2.35,2.35,0,0,1-.53,0H2.62A2.31,2.31,0,0,1,0,14a2.25,2.25,0,0,1,0-.52V8.68A2.33,2.33,0,0,1,2.1,6.14a3,3,0,0,1,.52,0h1.3V2.55A2.33,2.33,0,0,1,6,0a2.26,2.26,0,0,1,.52,0H17.39A2.32,2.32,0,0,1,20,2a1.88,1.88,0,0,1,0,.53V9.93a2.33,2.33,0,0,1-2.09,2.54A3.13,3.13,0,0,1,17.39,12.46Zm-.23-1.91A.77.77,0,0,0,18,9.91a.88.88,0,0,0,0-.23V2.8a.77.77,0,0,0-.65-.87.6.6,0,0,0-.23,0H6.78a.78.78,0,0,0-.89.64.81.81,0,0,0,0,.22V6.16h4.29A2.33,2.33,0,0,1,12.8,8.69v1.86ZM15.7,6.06l-.63-.6L14,6.48a.61.61,0,0,1-.43.17A.59.59,0,0,1,13,6.11v0a.64.64,0,0,1,.19-.45l1.06-1L13.58,4c-.35-.34-.17-.92.45-1l2.3-.25A.54.54,0,0,1,17,3.2a.46.46,0,0,1,0,.2l-.25,2.24a.6.6,0,0,1-1,.42Z"/></g></g></g></svg>
