<svg xmlns="http://www.w3.org/2000/svg" viewBox="0 0 20 20"><defs><style>.cls-1{fill:#000;}</style></defs><g id="Layer_2" data-name="Layer 2"><g id="Layer_4" data-name="Layer 4"><g id="referral"><path class="cls-1" d="M19.77,3.29A13.57,13.57,0,0,1,20,5.86v8.28a13.57,13.57,0,0,1-.23,2.57,3.88,3.88,0,0,1-3.07,3.06,13.49,13.49,0,0,1-2.57.23H5.86a13.49,13.49,0,0,1-2.57-.23,3.74,3.74,0,0,1-2-1.07,3.68,3.68,0,0,1-1.07-2A13.6,13.6,0,0,1,0,14.14V5.83A13.24,13.24,0,0,1,.23,3.29a3.73,3.73,0,0,1,1.06-2,3.74,3.74,0,0,1,2-1.07A13.35,13.35,0,0,1,5.84,0h8.29A13.49,13.49,0,0,1,16.7.23a3.73,3.73,0,0,1,2,1.07A3.73,3.73,0,0,1,19.77,3.29ZM0,11H8.13a5.77,5.77,0,0,1-.76,1.14,9.84,9.84,0,0,1-1.16,1.17,8.34,8.34,0,0,1-1.34.94,3.56,3.56,0,0,1-1.29.45,1.07,1.07,0,0,0-.71.32,1,1,0,0,0-.24.7.9.9,0,0,0,1.08.9,5,5,0,0,0,1.51-.52A8.6,8.6,0,0,0,6.85,15a9,9,0,0,0,1.42-1.48,6,6,0,0,0,.93-1.73h.07V20h1.44V11.78h.09a5.69,5.69,0,0,0,.92,1.73A9.53,9.53,0,0,0,13.15,15a8.6,8.6,0,0,0,1.63,1.07,5.12,5.12,0,0,0,1.49.52.9.9,0,0,0,1.09-.9,1,1,0,0,0-.24-.71,1.06,1.06,0,0,0-.7-.31,3.61,3.61,0,0,1-1.3-.45,7.68,7.68,0,0,1-1.34-.93,9.84,9.84,0,0,1-1.16-1.17A6.11,6.11,0,0,1,11.86,11H20V9.65H14.71A4.93,4.93,0,0,0,16,8.82a3.88,3.88,0,0,0,.88-1.15,3.21,3.21,0,0,0-.06-2.91,2.79,2.79,0,0,0-1.06-1.07,3,3,0,0,0-1.52-.39,3.36,3.36,0,0,0-1.4.3,3.71,3.71,0,0,0-1.22.84,5,5,0,0,0-.94,1.29V0H9.27V5.73a4.74,4.74,0,0,0-.93-1.29A3.81,3.81,0,0,0,7.12,3.6a3.38,3.38,0,0,0-1.39-.3,3,3,0,0,0-1.53.39A2.84,2.84,0,0,0,3.15,4.76a3.1,3.1,0,0,0-.38,1.53,3.1,3.1,0,0,0,.31,1.38A3.72,3.72,0,0,0,4,8.82a5,5,0,0,0,1.31.83H0ZM7.07,9.21A5.22,5.22,0,0,1,5.7,8.5a3.73,3.73,0,0,1-.93-1,2.08,2.08,0,0,1-.34-1.11,1.44,1.44,0,0,1,.37-1,1.34,1.34,0,0,1,1-.39,2.39,2.39,0,0,1,1.24.34,3.43,3.43,0,0,1,1,.91,4.26,4.26,0,0,1,.72,1.33,4.89,4.89,0,0,1,.26,1.58v.34H8.71A5,5,0,0,1,7.07,9.21Zm3.86.27V9.14a4.89,4.89,0,0,1,.26-1.58,4.46,4.46,0,0,1,.71-1.33,3.43,3.43,0,0,1,1-.91A2.42,2.42,0,0,1,14.19,5a1.33,1.33,0,0,1,1,.39,1.44,1.44,0,0,1,.37,1,2.16,2.16,0,0,1-.33,1.11,3.62,3.62,0,0,1-.94,1,5.22,5.22,0,0,1-1.37.71,4.89,4.89,0,0,1-1.63.27Z"/></g></g></g></svg>
