<svg xmlns="http://www.w3.org/2000/svg" viewBox="0 0 20 20">
<defs>
    <style>.cls-1{fill:#000;}</style>
  </defs>
<g id="Layer_2" data-name="Layer 2"><g id="Layer_4" data-name="Layer 4"><g id="rename"><path class="cls-1" d="M.8,19.22A3.19,3.19,0,0,1,0,16.86V5.2A3.19,3.19,0,0,1,.8,2.84a3.25,3.25,0,0,1,2.37-.78H14L12.41,3.69H3.2A1.57,1.57,0,0,0,2,4.09a1.59,1.59,0,0,0-.41,1.2V16.78A1.57,1.57,0,0,0,2,18a1.57,1.57,0,0,0,1.16.4H15a1.16,1.16,0,0,0,.89-.4,1.68,1.68,0,0,0,.38-1.19V7.67L17.91,6V16.86a3.31,3.31,0,0,1-.75,2.36A2.81,2.81,0,0,1,15,20H3.17A3.25,3.25,0,0,1,.8,19.22Zm5.8-5.85a.22.22,0,0,1-.06-.26l.91-1.9,9.43-9.45,1.39,1.37L8.82,12.58l-2,.86A.2.2,0,0,1,6.6,13.37ZM17.63,1l.74-.73A.89.89,0,0,1,19,0a.73.73,0,0,1,.56.21l.23.25A.76.76,0,0,1,20,1a.86.86,0,0,1-.26.6L19,2.39Z"/></g></g></g></svg>
