<svg xmlns="http://www.w3.org/2000/svg" viewBox="0 0 40 40"><defs><style>.cls-1{fill:#36f;}.cls-2{fill:#fff;}</style></defs><g id="Rub"><circle id="Ellipse_1" data-name="Ellipse 1" class="cls-1" cx="20" cy="20" r="20"/><path class="cls-2" d="M13.63,23H10V20.93h3.63V8h8a9.5,9.5,0,0,1,4.44,1A7.11,7.11,0,0,1,30,15.5v0a7.07,7.07,0,0,1-4,6.52,9.67,9.67,0,0,1-4.43,1H16.9v9H13.63ZM10,26H24.43V28H10Zm10.78-5.73A6.58,6.58,0,0,0,25.18,19a4.27,4.27,0,0,0,1.46-3.45v0A4.35,4.35,0,0,0,25.2,12a6.59,6.59,0,0,0-4.42-1.25H16.9v9.45Z"/></g></svg>