<svg xmlns="http://www.w3.org/2000/svg" viewBox="0 0 10 20">
<defs>
    <style>.cls-1{fill:#000;}</style>
  </defs>
  <g id="Layer_2" data-name="Layer 2"><g id="Layer_3" data-name="Layer 3"><g id="sb"><path class="cls-1" id="Rectangle_300" data-name="Rectangle 300" d="M8.33,20h0a1.66,1.66,0,0,1-1.66-1.67V1.67A1.66,1.66,0,0,1,8.33,0h0A1.67,1.67,0,0,1,10,1.67V18.33A1.67,1.67,0,0,1,8.33,20Z"/><path id="Rectangle_301" data-name="Rectangle 301" d="M1.67,20h0A1.67,1.67,0,0,1,0,18.33v-10A1.66,1.66,0,0,1,1.67,6.67h0A1.66,1.66,0,0,1,3.33,8.33v10A1.66,1.66,0,0,1,1.67,20Z"/></g></g></g></svg>
