<svg xmlns="http://www.w3.org/2000/svg" viewBox="0 0 20 20"><defs><style>.cls-1{fill:#000;}</style></defs><g id="Layer_2" data-name="Layer 2"><g id="Layer_1-2" data-name="Layer 1"><g id="search"><path class="cls-1" d="M8.17,16.18A8,8,0,0,1,5,15.55,8.22,8.22,0,0,1,2.4,13.8,8.12,8.12,0,0,1,.64,11.23,7.7,7.7,0,0,1,0,8.09,7.74,7.74,0,0,1,.64,5,8,8,0,0,1,2.4,2.37,8.29,8.29,0,0,1,5,.63,8,8,0,0,1,8.17,0a8,8,0,0,1,3.16.63A8.26,8.26,0,0,1,15.7,5a8,8,0,0,1,0,6.27,8.29,8.29,0,0,1-4.37,4.32A8,8,0,0,1,8.17,16.18Zm0-1.75a6,6,0,0,0,2.47-.5,6.6,6.6,0,0,0,2-1.37,6.45,6.45,0,0,0,1.39-2,6.25,6.25,0,0,0,0-4.9,6.53,6.53,0,0,0-3.43-3.4,6.19,6.19,0,0,0-2.47-.49,6.24,6.24,0,0,0-2.48.49,6.53,6.53,0,0,0-3.43,3.4,6.25,6.25,0,0,0,0,4.9,6.45,6.45,0,0,0,1.39,2,6.6,6.6,0,0,0,2,1.37A6.07,6.07,0,0,0,8.17,14.43ZM18.82,20a1.5,1.5,0,0,1-.47-.08,1.28,1.28,0,0,1-.4-.27l-5.64-5.59,1.74-1.67L19.66,18a.93.93,0,0,1,.26.39,1.42,1.42,0,0,1,.08.45,1.23,1.23,0,0,1-.15.61,1.44,1.44,0,0,1-.42.43A1.13,1.13,0,0,1,18.82,20Z"/></g></g></g></svg>
