<svg xmlns="http://www.w3.org/2000/svg" viewBox="0 0 200 280"><defs><style>.cls-1{fill:#36f;}.cls-2{fill:#f8f9fa;}.cls-3{fill:#fff;}</style></defs><g id="Layer_2" data-name="Layer 2"><g id="Layer_5" data-name="Layer 5"><g id="Secusity_light"><path class="cls-1" d="M100.74,5.17a1.37,1.37,0,0,0-.17-.17C78.08,29.09,42.18,48.85,3.77,57.26c0,2.57-.08,16.78-.37,82.3C3,227,86.18,269.67,99.1,276.23c12.51-5.76,96.73-48.41,97.12-135.81.29-65.52.36-79.73.37-82.3C158.34,49.39,123,29.39,100.74,5.17Z"/><path class="cls-2" d="M99,280l-1.46-.74a211.6,211.6,0,0,1-53.71-38.65,157.25,157.25,0,0,1-30.54-42.26A132.52,132.52,0,0,1,0,139.54l.38-85L3,53.94C40.19,45.8,75.72,26.64,98.09,2.68L100.59,0l2.48,2.69.17.17h0c22.21,24.13,57.39,43.55,94.1,51.94l2.66.61v2.72c0,2.56-.08,16.78-.37,82.3-.41,90.82-89,134.22-99.1,138.87ZM7.15,60,6.8,139.57c-.16,35.84,13.92,68.22,41.87,96.24a204.47,204.47,0,0,0,50.49,36.63c14.77-7.11,93.29-48.82,93.66-132,.24-53.85.33-73,.36-79.6-35.8-8.7-70-27.5-92.63-50.89C77.75,33.06,43.28,51.55,7.15,60Z"/><path class="cls-3" d="M69.73,181.07q-2.36-2.41-2.35-7.55V137.68c0-3.35,1-5.83,2.83-7.42a11.25,11.25,0,0,1,7.52-2.39l45.51-.1q4.74,0,7.06,2.41c1.54,1.62,2.32,4.12,2.32,7.5v35.84c0,3.42-.78,5.94-2.32,7.55s-3.9,2.41-7.06,2.41H76.76Q72.07,183.48,69.73,181.07Zm5.42-65.56a32,32,0,0,1,2.07-12A24.3,24.3,0,0,1,82.81,95a23.15,23.15,0,0,1,8-5.08,26.1,26.1,0,0,1,18.48,0,23.08,23.08,0,0,1,8,5.08,24,24,0,0,1,5.56,8.52,32.17,32.17,0,0,1,2,12V131H117V114.49a20.85,20.85,0,0,0-2.34-10.33,15.74,15.74,0,0,0-6.2-6.3,17.77,17.77,0,0,0-16.87,0,15.68,15.68,0,0,0-6.23,6.3A20.85,20.85,0,0,0,83,114.49V131H75.15Z"/></g></g></g></svg>