<svg xmlns="http://www.w3.org/2000/svg" viewBox="0 0 24 20"><defs><style>.cls-1{fill:#000;}</style></defs><g id="Layer_2" data-name="Layer 2"><g id="Layer_4" data-name="Layer 4"><g id="Settings"><path class="cls-1" d="M14.44,3.84H1a1,1,0,0,1-.67-.28A.94.94,0,0,1,0,2.87.89.89,0,0,1,.28,2.2.91.91,0,0,1,1,1.92H14.44ZM5.81,9V11H.91a.87.87,0,0,1-.64-.28A.93.93,0,0,1,0,10a.94.94,0,0,1,.27-.68A.87.87,0,0,1,.91,9Zm8.57,9.06H1a.91.91,0,0,1-.67-.28,1,1,0,0,1,0-1.35A.91.91,0,0,1,1,16.18H14.38Zm-8-5.62a3,3,0,0,1-1-1,2.84,2.84,0,0,1,0-2.87,3,3,0,0,1,1-1,2.71,2.71,0,0,1,1.43-.38,2.75,2.75,0,0,1,1.44.38,3,3,0,0,1,1,1,2.84,2.84,0,0,1,0,2.87,3,3,0,0,1-1,1,2.75,2.75,0,0,1-1.44.39A2.72,2.72,0,0,1,6.43,12.47ZM8.86,11a1.45,1.45,0,0,0,0-2,1.44,1.44,0,0,0-2,0,1.4,1.4,0,0,0,1,2.39A1.36,1.36,0,0,0,8.86,11ZM23.72,9.31A.91.91,0,0,1,24,10a.9.9,0,0,1-.28.68A.91.91,0,0,1,23,11H9.75V9H23A.91.91,0,0,1,23.72,9.31Zm-8.89-4a3,3,0,0,1-1-1,2.78,2.78,0,0,1-.39-1.44,2.72,2.72,0,0,1,.39-1.43,3.07,3.07,0,0,1,1-1,2.85,2.85,0,0,1,2.88,0,3,3,0,0,1,1,1,2.72,2.72,0,0,1,.39,1.43,2.78,2.78,0,0,1-.39,1.44,3,3,0,0,1-1,1,2.85,2.85,0,0,1-2.88,0Zm0,14.27a3,3,0,0,1-1-1,2.75,2.75,0,0,1-.39-1.44,2.72,2.72,0,0,1,.39-1.43,3,3,0,0,1,1-1,2.85,2.85,0,0,1,2.88,0,2.93,2.93,0,0,1,1,1,2.72,2.72,0,0,1,.39,1.43,2.75,2.75,0,0,1-.39,1.44,3,3,0,0,1-1,1,2.85,2.85,0,0,1-2.88,0ZM17.26,3.85a1.34,1.34,0,0,0,.4-1,1.39,1.39,0,1,0-2.78,0,1.34,1.34,0,0,0,.4,1,1.4,1.4,0,0,0,2,0Zm0,14.28a1.34,1.34,0,0,0,.4-1,1.31,1.31,0,0,0-.4-1,1.43,1.43,0,0,0-2,0,1.31,1.31,0,0,0-.4,1,1.4,1.4,0,0,0,2.38,1ZM23.73,2.2a.92.92,0,0,1,.27.67,1,1,0,0,1-.27.69.92.92,0,0,1-.65.28h-4.9V1.92h4.9A.88.88,0,0,1,23.73,2.2Zm0,14.26a1,1,0,0,1,0,1.35.88.88,0,0,1-.65.28H18.34V16.18h4.74A.88.88,0,0,1,23.73,16.46Z"/></g></g></g></svg>
