<svg xmlns="http://www.w3.org/2000/svg" viewBox="0 0 20 16"><g id="Layer_2" data-name="Layer 2"><g id="Layer_1-2" data-name="Layer 1"><g id="sort"><path d="M5.13,0A.76.76,0,0,1,5.7.26L10,4.64a.79.79,0,0,1,.24.56.74.74,0,0,1-.21.55A.73.73,0,0,1,9.5,6a.94.94,0,0,1-.3,0A.66.66,0,0,1,9,5.74L7.18,3.91,5.81,2.33l.08,2V15.23a.77.77,0,0,1-.21.55.81.81,0,0,1-1.11,0,.77.77,0,0,1-.21-.55V4.29l.08-2L3.07,3.91,1.29,5.74a.81.81,0,0,1-.24.17.85.85,0,0,1-.3,0,.73.73,0,0,1-.54-.21A.74.74,0,0,1,0,5.2a.79.79,0,0,1,.24-.56L4.56.26A.73.73,0,0,1,5.13,0Zm9.75,16a.79.79,0,0,1-.57-.25L10,11.35a.75.75,0,0,1-.25-.56.71.71,0,0,1,.22-.55.77.77,0,0,1,.54-.2.84.84,0,0,1,.29.05.63.63,0,0,1,.24.16l1.78,1.83,1.38,1.59-.09-2V.77a.74.74,0,0,1,.22-.55A.76.76,0,0,1,14.88,0a.78.78,0,0,1,.55.22.77.77,0,0,1,.21.55V11.71l-.08,2,1.38-1.59,1.78-1.83a.6.6,0,0,1,.23-.16.94.94,0,0,1,.3-.05.77.77,0,0,1,.54.2.74.74,0,0,1,.21.55.77.77,0,0,1-.24.56l-4.31,4.4A.75.75,0,0,1,14.88,16Z"/></g></g></g></svg>