<svg xmlns="http://www.w3.org/2000/svg" viewBox="0 0 14 16"><g id="Layer_2" data-name="Layer 2"><g id="Layer_2-2" data-name="Layer 2"><g id="tap"><path d="M5.62.46A3.85,3.85,0,0,1,7,1.71a3.79,3.79,0,0,1,.61,1.78v.26a.55.55,0,0,1-.18.39A.64.64,0,0,1,7,4.29a.54.54,0,0,1-.38-.14.59.59,0,0,1-.17-.4s0,0,0-.07V3.61A2.65,2.65,0,0,0,6,2.38a2.62,2.62,0,0,0-.94-.87,2.47,2.47,0,0,0-1.26-.33,2.52,2.52,0,0,0-1.32.36,2.65,2.65,0,0,0-1,1,2.52,2.52,0,0,0-.36,1.32,2.64,2.64,0,0,0,.15.89,2.8,2.8,0,0,0,.42.76.55.55,0,0,1,.13.44.51.51,0,0,1-.2.36.56.56,0,0,1-.39.15A.54.54,0,0,1,1,6.34a.61.61,0,0,1-.25-.21A3.81,3.81,0,0,1,.2,5.05,4.07,4.07,0,0,1,0,3.81,3.65,3.65,0,0,1,.3,2.34a3.91,3.91,0,0,1,.82-1.22A3.8,3.8,0,0,1,2.34.3,3.65,3.65,0,0,1,3.81,0,3.61,3.61,0,0,1,5.62.46ZM7.43,15.81a6.12,6.12,0,0,1-3.06-2.24L2.05,10.68a.76.76,0,0,1-.13-.17c0-.07-.07-.14-.1-.22a.79.79,0,0,1,0-.64.9.9,0,0,1,.52-.45.72.72,0,0,1,.52,0,1.17,1.17,0,0,1,.46.31l1.74,1.88c.11.12.21.16.31.13a.23.23,0,0,0,.11-.11.31.31,0,0,0,0-.21L2.89,4a1,1,0,0,1,0-.73.82.82,0,0,1,.5-.46.84.84,0,0,1,.66,0,1,1,0,0,1,.46.55l1.81,5a.42.42,0,0,0,.17.24.3.3,0,0,0,.23,0,.23.23,0,0,0,.14-.15.46.46,0,0,0,0-.3L6.29,6.66c-.09-.26,0-.45.3-.56a1.12,1.12,0,0,1,.9,0,1.3,1.3,0,0,1,.62.78l.27.71a.41.41,0,0,0,.17.25.26.26,0,0,0,.23,0,.28.28,0,0,0,.14-.16.43.43,0,0,0,0-.29l-.28-.77q-.15-.41.3-.57a1.11,1.11,0,0,1,.91,0,1.32,1.32,0,0,1,.63.75l.13.37a.41.41,0,0,0,.17.25.37.37,0,0,0,.23,0,.25.25,0,0,0,.14-.16.4.4,0,0,0,0-.3l-.2-.56a.26.26,0,0,1,.18-.38,1.11,1.11,0,0,1,.72,0,1.75,1.75,0,0,1,.71.52,2.89,2.89,0,0,1,.54,1l.48,1.3A6.49,6.49,0,0,1,14,11.85a4.13,4.13,0,0,1-1,2.28,5.33,5.33,0,0,1-2.29,1.52A5.35,5.35,0,0,1,7.43,15.81Z"/></g></g></g></svg>