<svg xmlns="http://www.w3.org/2000/svg" viewBox="0 0 16 16">
  <defs>
    <style>.cls-1{fill:#6c757d;}</style>
  </defs>
  <g id="Layer_2" data-name="Layer 2">
    <g id="Layer_2-2" data-name="Layer 2">
      <path id="theme" class="cls-1"
            d="M8,16a7.66,7.66,0,0,1-3.09-.63A8.21,8.21,0,0,1,.63,11.09a7.89,7.89,0,0,1,0-6.18A8.21,8.21,0,0,1,4.91.63a7.89,7.89,0,0,1,6.18,0,8.19,8.19,0,0,1,4.28,4.28,7.89,7.89,0,0,1,0,6.18,8.21,8.21,0,0,1-4.28,4.28A7.66,7.66,0,0,1,8,16Zm0-1.33V1.33A6.59,6.59,0,0,0,3.28,3.28,6.67,6.67,0,0,0,1.85,10.6,6.7,6.7,0,0,0,5.4,14.15a6.63,6.63,0,0,0,2.6.52Z"/>
    </g>
  </g>
</svg>
