<svg xmlns="http://www.w3.org/2000/svg" viewBox="0 0 40 40">
  <g id="Layer_2" data-name="Layer 2">
    <g id="Layer_5" data-name="Layer 5">
      <g id="touch_id" data-name="touch id">
        <path
          d="M1.28,26.17a1.12,1.12,0,0,1-.53-.68,20.52,20.52,0,0,1-.67-3.76,22.74,22.74,0,0,1,0-3.39,1.15,1.15,0,0,1,.33-.72,1,1,0,0,1,.81-.24,1,1,0,0,1,.65.3,1.07,1.07,0,0,1,.24.79A22.56,22.56,0,0,0,2.19,22a24.13,24.13,0,0,0,.53,2.95,1.26,1.26,0,0,1-.07.84.87.87,0,0,1-.57.5A1,1,0,0,1,1.28,26.17ZM.7,14.64a1.6,1.6,0,0,1,.05-1.15A22,22,0,0,1,4,7.57,19.33,19.33,0,0,1,8.43,3.35,18.58,18.58,0,0,1,13.8.83,21.49,21.49,0,0,1,19.75,0a19.78,19.78,0,0,1,4.77.54A13.71,13.71,0,0,1,28.77,2.4a1.6,1.6,0,0,1,.53.54.87.87,0,0,1,0,.81.74.74,0,0,1-.65.49A1.76,1.76,0,0,1,27.68,4a13.2,13.2,0,0,0-3.56-1.43,17.87,17.87,0,0,0-4.37-.49,17.92,17.92,0,0,0-6.89,1.38,17.53,17.53,0,0,0-6,4.14,18.93,18.93,0,0,0-4.13,6.92,1.1,1.1,0,0,1-.61.71,1.16,1.16,0,0,1-.84,0A1,1,0,0,1,.7,14.64ZM4,30.84a1.11,1.11,0,0,1,.38-.7,3.77,3.77,0,0,0,1-1.42,4.94,4.94,0,0,0,.33-1.79,8.16,8.16,0,0,0-.3-2c-.19-.69-.37-1.45-.56-2.26a12,12,0,0,1-.28-2.73A14.8,14.8,0,0,1,5.75,14a15.57,15.57,0,0,1,8.07-8.21,14.31,14.31,0,0,1,5.82-1.21A15.34,15.34,0,0,1,26.3,6a14.63,14.63,0,0,1,5.11,4.05,18.94,18.94,0,0,1,3.27,6.23,26.68,26.68,0,0,1,1.14,8,29.52,29.52,0,0,1-.48,5.72,29,29,0,0,1-1,3.88.94.94,0,0,1-.61.59,1.1,1.1,0,0,1-.82,0,1,1,0,0,1-.49-.59,1.14,1.14,0,0,1,0-.85,19,19,0,0,0,.93-3.44,28.38,28.38,0,0,0,.42-5.27A23,23,0,0,0,32,15.11,14.47,14.47,0,0,0,27.11,8.9a12.68,12.68,0,0,0-7.47-2.22,12.38,12.38,0,0,0-5,1,13.49,13.49,0,0,0-4.16,2.88,13.74,13.74,0,0,0-2.82,4.23,12.67,12.67,0,0,0-1,5.1,11.35,11.35,0,0,0,.27,2.68c.19.72.37,1.42.55,2.07a8.65,8.65,0,0,1,.27,2.26,7.47,7.47,0,0,1-.49,2.7,5.13,5.13,0,0,1-1.47,2.12A1,1,0,0,1,4.9,32a1,1,0,0,1-.71-.43A1.12,1.12,0,0,1,4,30.84Zm3.56,4.3a1,1,0,0,1-.56-.5,1.06,1.06,0,0,1,0-.71,1.44,1.44,0,0,1,.59-.75,7.16,7.16,0,0,0,1.67-1.62,7.19,7.19,0,0,0,1-2.14,1.13,1.13,0,0,1,.51-.65.88.88,0,0,1,.74-.07.91.91,0,0,1,.6.54,1.2,1.2,0,0,1,.06.79,7.68,7.68,0,0,1-.87,2,11.27,11.27,0,0,1-1.38,1.85A5.87,5.87,0,0,1,8.47,35,1.07,1.07,0,0,1,7.58,35.14Zm4.78-9.27a1,1,0,0,1-.55.58,1,1,0,0,1-.87,0,1.19,1.19,0,0,1-.58-.64,26.42,26.42,0,0,1-.86-2.6A12,12,0,0,1,9.11,20a10.92,10.92,0,0,1,3.08-7.68,10.55,10.55,0,0,1,3.39-2.3,10.35,10.35,0,0,1,4.17-.83,9.76,9.76,0,0,1,2.63.36,9.59,9.59,0,0,1,2.2.89,1.25,1.25,0,0,1,.58.7,1.06,1.06,0,0,1-.09.82.74.74,0,0,1-.5.41,1,1,0,0,1-.77-.1c-.55-.26-1-.46-1.37-.61a4.61,4.61,0,0,0-1.16-.3,10.5,10.5,0,0,0-1.52-.09,8.3,8.3,0,0,0-4.36,1.17A8.61,8.61,0,0,0,11.16,20a8.46,8.46,0,0,0,.43,2.83c.28.81.54,1.53.77,2.16A1.21,1.21,0,0,1,12.36,25.87Zm-.88,11.87a.91.91,0,0,1-.72-.44,1,1,0,0,1-.17-.75,1.18,1.18,0,0,1,.42-.71A10,10,0,0,0,13.87,32a13,13,0,0,0,1-5.1,12.93,12.93,0,0,0-.29-2.54c-.18-.84-.37-1.65-.55-2.44a10,10,0,0,1-.27-2.23,5.66,5.66,0,0,1,.79-3,5.52,5.52,0,0,1,2.14-2,6.38,6.38,0,0,1,3-.72,5.48,5.48,0,0,1,4,1.48,8.63,8.63,0,0,1,2.14,4A22.65,22.65,0,0,1,26.52,25a24.74,24.74,0,0,1-.69,6,21.88,21.88,0,0,1-1.9,5.12,13.4,13.4,0,0,1-2.6,3.57,1,1,0,0,1-.82.27,1,1,0,0,1-.71-.42,1.09,1.09,0,0,1-.15-.74,1,1,0,0,1,.39-.66A11.64,11.64,0,0,0,22.45,35a17.81,17.81,0,0,0,1.67-4.48,20.84,20.84,0,0,0,.5-5.39,23.81,23.81,0,0,0-.53-4.59,7.77,7.77,0,0,0-1.53-3.35A3.53,3.53,0,0,0,19.69,16,3.94,3.94,0,0,0,16.82,17a3.68,3.68,0,0,0-1.1,2.81A6.93,6.93,0,0,0,16,21.71c.19.67.38,1.43.57,2.26a13.66,13.66,0,0,1,.31,2.88,15,15,0,0,1-1.17,6,11.84,11.84,0,0,1-3.42,4.61A1.06,1.06,0,0,1,11.48,37.74Zm4.22,1.44a.84.84,0,0,1-.67-.44,1,1,0,0,1-.16-.77,1.15,1.15,0,0,1,.43-.69,9.41,9.41,0,0,0,1.75-1.88,12.56,12.56,0,0,0,1.54-3,.93.93,0,0,1,.49-.56,1,1,0,0,1,.81,0,.76.76,0,0,1,.54.56,1.39,1.39,0,0,1,0,.73,11.31,11.31,0,0,1-1.67,3.4,10.8,10.8,0,0,1-2.24,2.43A1.06,1.06,0,0,1,15.7,39.18ZM21,29.56a1,1,0,0,1-.8.15.83.83,0,0,1-.65-.42,1.11,1.11,0,0,1-.09-.76,13.53,13.53,0,0,0,.22-2.42,16.27,16.27,0,0,0-.18-2.57,17.15,17.15,0,0,0-.61-2.65,1,1,0,0,1,.06-.84,1,1,0,0,1,.6-.49,1,1,0,0,1,.78.08,1.22,1.22,0,0,1,.54.72,18.9,18.9,0,0,1,.66,2.86,19.11,19.11,0,0,1,.2,2.9,15.1,15.1,0,0,1-.28,2.69A1.12,1.12,0,0,1,21,29.56Zm5.41-15.71a1,1,0,0,1,.49-.67,1,1,0,0,1,.81-.08,1.37,1.37,0,0,1,.72.58,19.89,19.89,0,0,1,1.46,3,19,19,0,0,1,1,3.73,29.34,29.34,0,0,1,.36,4.89,25.82,25.82,0,0,1-1,7.28,18.85,18.85,0,0,1-2.66,5.72.93.93,0,0,1-.74.39,1,1,0,0,1-.8-.28.9.9,0,0,1-.29-.72,1.35,1.35,0,0,1,.25-.76,14.29,14.29,0,0,0,2.37-5,23.83,23.83,0,0,0,.88-6.58,24.63,24.63,0,0,0-.66-5.93,14.64,14.64,0,0,0-2-4.63A1.22,1.22,0,0,1,26.43,13.85Zm11.92,7.78a1.52,1.52,0,0,1-.32-.78,22.55,22.55,0,0,0-2.27-8.48,23,23,0,0,0-4.52-6,1.16,1.16,0,0,1-.41-.79,1.06,1.06,0,0,1,.25-.71,1,1,0,0,1,.65-.33,1,1,0,0,1,.82.3A22.07,22.07,0,0,1,36.16,9a20.85,20.85,0,0,1,2.46,5.18A32.89,32.89,0,0,1,40,20.82a1.1,1.1,0,0,1-.24.8.95.95,0,0,1-1.41,0Z"/>
      </g>
    </g>
  </g>
</svg>
