<svg xmlns="http://www.w3.org/2000/svg" viewBox="0 0 18 20">
 <defs>
    <style>.cls-1{fill:#000;}</style>
  </defs>
<g id="Layer_2" data-name="Layer 2"><g id="Layer_4" data-name="Layer 4"><g id="trash"><path class="cls-1" d="M3.23,19.55a1.83,1.83,0,0,1-.54-1.3L2.1,5H.7a.67.67,0,0,1-.49-.21A.63.63,0,0,1,0,4.29a.66.66,0,0,1,.21-.48.66.66,0,0,1,.49-.2H17.3a.66.66,0,0,1,.5.2.68.68,0,0,1,0,1,.67.67,0,0,1-.5.21H15.91l-.6,13.27a1.79,1.79,0,0,1-.53,1.3,2,2,0,0,1-1.36.45H4.58A1.93,1.93,0,0,1,3.23,19.55ZM4.82,2.22A2.12,2.12,0,0,1,5.47.59,2.53,2.53,0,0,1,7.23,0h3.52a2.51,2.51,0,0,1,1.76.59,2.12,2.12,0,0,1,.65,1.63V3.9H11.49V2.31a.74.74,0,0,0-.23-.56.84.84,0,0,0-.6-.21H7.33a.84.84,0,0,0-.6.21.74.74,0,0,0-.23.56V3.9H4.82Zm1.67,15a.52.52,0,0,0,.15-.38L6.36,7a.55.55,0,0,0-.18-.39.59.59,0,0,0-.4-.14.61.61,0,0,0-.43.15A.53.53,0,0,0,5.19,7l.29,9.89a.51.51,0,0,0,.17.39.6.6,0,0,0,.41.14A.61.61,0,0,0,6.49,17.25Zm2.94,0a.5.5,0,0,0,.17-.38V7a.51.51,0,0,0-.17-.39A.61.61,0,0,0,9,6.44a.63.63,0,0,0-.43.15A.51.51,0,0,0,8.4,7v9.89a.5.5,0,0,0,.17.38A.63.63,0,0,0,9,17.4.61.61,0,0,0,9.43,17.25Zm2.92,0a.51.51,0,0,0,.17-.39L12.81,7a.53.53,0,0,0-.16-.39.61.61,0,0,0-.43-.15.59.59,0,0,0-.4.14.56.56,0,0,0-.18.4l-.28,9.89a.52.52,0,0,0,.15.38.61.61,0,0,0,.43.15A.6.6,0,0,0,12.35,17.26Z"/></g></g></g></svg>
