<svg xmlns="http://www.w3.org/2000/svg" viewBox="0 0 40 40"><defs><style>.cls-1{fill:#e8b321;}.cls-2{fill:#fff;}.cls-3{fill:#36f;}</style></defs><g id="bsv"><path id="BSV-2" data-name="BSV" class="cls-1" d="M20,40A20,20,0,1,1,40,20,20,20,0,0,1,20,40ZM18.3,13.09h1.93c1.28,0,4,.16,4,2.37a2.67,2.67,0,0,1-2.41,2.84H18.3Zm3.13,13.82h-3V21.09H21.9c.79,0,3.8.32,3.8,2.43S24.27,26.91,21.43,26.91Z"/><path id="BSV-3" data-name="BSV" class="cls-2" d="M27.14,18.89a4.34,4.34,0,0,0,2.22-4.61c-.32-2.86-3.81-4-6.51-4.29V5.7h-2.7V10H18.4V5.7H15.7V10H10.3v2.86h2.07c1,0,1.27.32,1.27,1V25.72c0,1-.48,1.27-1.11,1.27H10.62l-.16,2.86H15.7V34.3h2.7V29.85h1.75V34.3h2.7V29.85h.63c5.56,0,7.31-2.7,7.31-6.35S27.14,18.89,27.14,18.89Zm-8.84-5.8h1.93c1.28,0,4,.16,4,2.37a2.67,2.67,0,0,1-2.41,2.84H18.3Zm3.13,13.82h-3V21.09H21.9c.79,0,3.8.32,3.8,2.43S24.27,26.91,21.43,26.91Z"/></g><g id="usd"><circle id="Ellipse_1" data-name="Ellipse 1" class="cls-3" cx="20" cy="20" r="20"/><path class="cls-2" d="M16.21,30.57a7.21,7.21,0,0,1-2.92-2.17A5.92,5.92,0,0,1,12,25l0-.22h2.8l0,.19a4.86,4.86,0,0,0,.77,1.9,4,4,0,0,0,1.7,1.38,6.78,6.78,0,0,0,2.88.52,7.23,7.23,0,0,0,2.92-.5A3.35,3.35,0,0,0,24.7,27a3.6,3.6,0,0,0,.5-1.86h0a3,3,0,0,0-.84-2.2,6.76,6.76,0,0,0-3.22-1.45l-2.4-.59a10.46,10.46,0,0,1-4.58-2.14,4.9,4.9,0,0,1-1.58-3.82h0a5.49,5.49,0,0,1,1-3.28,6.46,6.46,0,0,1,2.7-2.16,9.45,9.45,0,0,1,3.87-.77,9,9,0,0,1,3.76.77,6.92,6.92,0,0,1,2.72,2.15,5.94,5.94,0,0,1,1.14,3.22v.24H25v-.14a4,4,0,0,0-.77-2,4.09,4.09,0,0,0-1.69-1.27,5.88,5.88,0,0,0-2.36-.45,5.88,5.88,0,0,0-2.62.52A3.94,3.94,0,0,0,15.92,13a3,3,0,0,0-.54,1.7v0a2.91,2.91,0,0,0,.84,2.06,6.05,6.05,0,0,0,2.93,1.39l2.4.59A11.49,11.49,0,0,1,26.33,21a4.94,4.94,0,0,1,1.67,4v0a5.56,5.56,0,0,1-1.09,3.5A6.7,6.7,0,0,1,24,30.59a10.08,10.08,0,0,1-3.88.73A10.12,10.12,0,0,1,16.21,30.57ZM19.11,6h1.94V34H19.11Z"/></g></svg>