<svg xmlns="http://www.w3.org/2000/svg" viewBox="0 0 40 40"><defs><style>.cls-1{fill:#31b651;}.cls-2{fill:#fff;}</style></defs><g id="bch"><circle id="Ellipse_1" data-name="Ellipse 1" class="cls-1" cx="20" cy="20" r="20"/><path id="形状" class="cls-2" d="M24.2,20.48a8.13,8.13,0,0,0-2.78.1c-1.2.24-2.69.73-2.69.73l1.37,5.11s1.59-.39,2.62-.75a7.87,7.87,0,0,0,2.53-1.37,2.19,2.19,0,0,0-1.05-3.82ZM20.07,18.4a5.83,5.83,0,0,0,2.3-1.26,1.93,1.93,0,0,0,.54-2.09,2.13,2.13,0,0,0-2.09-1.48,7.66,7.66,0,0,0-2.47.31c-.75.18-1.49.45-1.49.45l1.23,4.6s1.12-.26,2-.53Zm9.77,6.87a8.08,8.08,0,0,1-3.31,2.25c-.49.2-1,.38-1.49.54l1,3.87-2.39.64-1-3.8-1.81.49,1,3.8-2.39.64-1-3.81-4.68,1.26-.29-3,1.43-.38a1.19,1.19,0,0,0,.81-.47,1,1,0,0,0,.06-.78l-2.65-9.87a1.34,1.34,0,0,0-.63-1,2,2,0,0,0-1.42,0L9.72,16l-.66-2.47,4.69-1.26-1-3.82,2.39-.64,1,3.82L18,11.15l-1-3.82,2.39-.64,1,3.87a7.76,7.76,0,0,1,4.6.16,4.13,4.13,0,0,1,2.32,3.1,4.43,4.43,0,0,1-.13,2.08,5.33,5.33,0,0,1-1.07,1.5,6.36,6.36,0,0,1,2.2.33,4,4,0,0,1,2.26,2.91,5,5,0,0,1-.68,4.63Z"/></g></svg>