<svg xmlns="http://www.w3.org/2000/svg" viewBox="0 0 40 40"><defs><style>.cls-1{fill:#e8b321;}.cls-2{fill:#fff;}</style></defs><g id="bsv"><path id="BSV-2" data-name="BSV" class="cls-1" d="M20,40A20,20,0,1,1,40,20,20,20,0,0,1,20,40ZM18.3,13.09h1.93c1.28,0,4,.16,4,2.37a2.67,2.67,0,0,1-2.41,2.84H18.3Zm3.13,13.82h-3V21.09H21.9c.79,0,3.8.32,3.8,2.43S24.27,26.91,21.43,26.91Z"/><path id="BSV-3" data-name="BSV" class="cls-2" d="M27.14,18.89a4.34,4.34,0,0,0,2.22-4.61c-.32-2.86-3.81-4-6.51-4.29V5.7h-2.7V10H18.4V5.7H15.7V10H10.3v2.86h2.07c1,0,1.27.32,1.27,1V25.72c0,1-.48,1.27-1.11,1.27H10.62l-.16,2.86H15.7V34.3h2.7V29.85h1.75V34.3h2.7V29.85h.63c5.56,0,7.31-2.7,7.31-6.35S27.14,18.89,27.14,18.89Zm-8.84-5.8h1.93c1.28,0,4,.16,4,2.37a2.67,2.67,0,0,1-2.41,2.84H18.3Zm3.13,13.82h-3V21.09H21.9c.79,0,3.8.32,3.8,2.43S24.27,26.91,21.43,26.91Z"/></g></svg>