<svg xmlns="http://www.w3.org/2000/svg" viewBox="0 0 40 40"><defs><style>.cls-1{fill:#fdb614;}.cls-2{fill:#fff;}</style></defs><g id="Layer_2" data-name="Layer 2"><g id="Layer_2-2" data-name="Layer 2"><g id="btc"><circle id="Ellipse_1" data-name="Ellipse 1" class="cls-1" cx="20" cy="20" r="20"/><path id="Path_3" data-name="Path 3" class="cls-2" d="M29.51,17.46c.42-2.66-1.66-4.08-4.58-5l.92-3.58L23.68,8.3l-.83,3.5c-.58-.17-1.17-.25-1.75-.42L22,7.88,19.85,7.3l-.91,3.58c-.5-.09-1-.25-1.42-.34l-3-.74-.58,2.33,1.58.41a1.15,1.15,0,0,1,1,1.25l-1,4.08L14.1,23.62a.79.79,0,0,1-1,.5l-1.58-.42-1.08,2.5,2.83.75c.58.17,1.08.25,1.58.42L13.94,31l2.16.58L17,28a13.49,13.49,0,0,1,1.75.42L17.85,32,20,32.7,20.93,29c3.75.67,6.58.42,7.74-3,1-2.75,0-4.33-2-5.33A3.46,3.46,0,0,0,29.51,17.46Zm-5,7c-.67,2.74-5.25,1.24-6.74.91l1.16-4.83c1.5.42,6.25,1.08,5.58,3.91Zm.67-7c-.59,2.5-4.42,1.25-5.67.92L20.59,14c1.26.34,5.17.92,4.59,3.5Z"/></g></g></g></svg>