<svg xmlns="http://www.w3.org/2000/svg" viewBox="0 0 40 40"><defs><style>.cls-1{fill:#385f9d;}.cls-2{fill:#fff;fill-rule:evenodd;}</style></defs><g id="ltc"><g id="Group"><circle id="Combined-Shape" class="cls-1" cx="20" cy="20" r="20"/><path id="Combined-Shape-2" data-name="Combined-Shape" class="cls-2" d="M18.33,27.19H29.57l.14,0a.54.54,0,0,1,.37.66l-1,3.64a.53.53,0,0,1-.51.39H11.36l2.87-9.74-3,1,.63-2.29,3.08-1L19,6a.54.54,0,0,1,.51-.38H24a.53.53,0,0,1,.53.53.68.68,0,0,1,0,.15L21.07,17.93l3.12-1-.6,2.26-3.2,1Z"/></g></g></svg>
