<svg xmlns="http://www.w3.org/2000/svg" viewBox="0 0 40 40"><defs><style>.cls-1{fill:#edf1ff;}.cls-2{fill:#384182;}.cls-3{fill:#f79534;}.cls-4{fill:#f0513a;}</style></defs><g id="rvn"><g id="RVN-2" data-name="RVN"><circle id="Ellipse_1" data-name="Ellipse 1" class="cls-1" cx="20" cy="20" r="20"/><g id="ravencoin-rvn-logo"><path id="形状" class="cls-2" d="M18.75,29.66,10.61,35.5l5.17-23.78Zm.16-.06,5,.06L16,11.81Zm5.43-.39,3.79-14.07L26.7,13.38Zm-1.83-22-6.25,4.2,9.13-2.95Zm-.79,0-3.88.12L17.28,8.9Z"/><path id="形状-2" data-name="形状" class="cls-3" d="M26.42,12.84l-10-1.37,9-2.83ZM24.05,7.56l.55-1.49L21.72,4.81Zm.84-1.64.65,2.34,3.84-1Z"/><path id="形状-3" data-name="形状" class="cls-4" d="M24.09,29.57l-8-17.92,10.44,1.46ZM22.21,7.16,17.27,9.09l-1.19,2.19ZM19.14,5.69,17.91,7.05,22,7ZM21.3,4.63l-2,.91,4.47,2Zm2.23-.12h-2.1l3.26,1.26Zm1.22,1.68-.5,1.5,1,.48Z"/></g></g></g></svg>