<svg xmlns="http://www.w3.org/2000/svg" viewBox="0 0 24 18"><defs><style>.cls-1{fill:#000;}</style></defs><g id="Layer_2" data-name="Layer 2"><g id="Layer_4" data-name="Layer 4"><g id="menu"><path class="cls-1" d="M.44,2.55A1.44,1.44,0,0,1,0,1.5,1.46,1.46,0,0,1,.44.43,1.45,1.45,0,0,1,1.5,0,1.45,1.45,0,0,1,2.56.43,1.46,1.46,0,0,1,3,1.5a1.44,1.44,0,0,1-.44,1A1.46,1.46,0,0,1,1.5,3,1.46,1.46,0,0,1,.44,2.55Zm0,7.51a1.5,1.5,0,0,1,0-2.12A1.46,1.46,0,0,1,1.5,7.5a1.46,1.46,0,0,1,1.06.44,1.5,1.5,0,0,1,0,2.12,1.46,1.46,0,0,1-1.06.44A1.46,1.46,0,0,1,.44,10.06Zm0,7.5A1.5,1.5,0,0,1,1.5,15a1.45,1.45,0,0,1,1.06.43,1.51,1.51,0,0,1,0,2.13A1.46,1.46,0,0,1,1.5,18,1.46,1.46,0,0,1,.44,17.56ZM6.09,2.18a.9.9,0,0,1-.28-.68A.9.9,0,0,1,6.09.82.9.9,0,0,1,6.77.54H23a.91.91,0,0,1,.68.28A.9.9,0,0,1,24,1.5a.9.9,0,0,1-.28.68.94.94,0,0,1-.68.27H6.77A.93.93,0,0,1,6.09,2.18Zm0,7.5a1,1,0,0,1,0-1.36.93.93,0,0,1,.68-.27H23a.94.94,0,0,1,.68.27,1,1,0,0,1,0,1.36A.91.91,0,0,1,23,10H6.77A.9.9,0,0,1,6.09,9.68Zm0,7.5a.9.9,0,0,1-.28-.68,1,1,0,0,1,1-1H23a1,1,0,0,1,.68.28.94.94,0,0,1,.28.69.9.9,0,0,1-.28.68.94.94,0,0,1-.68.27H6.77A.93.93,0,0,1,6.09,17.18Z"/></g></g></g></svg>
