<svg xmlns="http://www.w3.org/2000/svg" viewBox="0 0 24 24"><defs><style>.cls-1{fill:#000;}</style></defs><g id="Layer_2" data-name="Layer 2"><g id="Layer_2-2" data-name="Layer 2"><g id="transactions"><path class="cls-1" d="M7.37,23.06a12.26,12.26,0,0,1-3.83-2.6,12.43,12.43,0,0,1-2.6-3.83A11.48,11.48,0,0,1,0,12,11.48,11.48,0,0,1,.94,7.37,12.35,12.35,0,0,1,7.36.94,11.48,11.48,0,0,1,12,0a11.48,11.48,0,0,1,4.63.94,12.29,12.29,0,0,1,6.44,6.43A11.48,11.48,0,0,1,24,12a11.48,11.48,0,0,1-.94,4.63,12.43,12.43,0,0,1-2.6,3.83,12.26,12.26,0,0,1-3.83,2.6A11.48,11.48,0,0,1,12,24,11.48,11.48,0,0,1,7.37,23.06Zm8.53-1.84a9.94,9.94,0,0,0,5.33-5.33A9.86,9.86,0,0,0,22,12a9.69,9.69,0,0,0-.78-3.89A9.95,9.95,0,0,0,12,2a9.94,9.94,0,0,0-3.9.77A9.83,9.83,0,0,0,4.92,4.92,10.22,10.22,0,0,0,2.78,8.11,9.86,9.86,0,0,0,2,12a9.86,9.86,0,0,0,.77,3.89,10.22,10.22,0,0,0,2.14,3.19,10.05,10.05,0,0,0,3.19,2.14A9.69,9.69,0,0,0,12,22,9.77,9.77,0,0,0,15.9,21.22ZM8.67,7.65A.9.9,0,0,1,8.93,7a.88.88,0,0,1,.67-.26h.49V5.81a.6.6,0,0,1,.16-.41.54.54,0,0,1,.41-.16.56.56,0,0,1,.41.16.59.59,0,0,1,.15.41v.91H12V5.81a.56.56,0,0,1,.16-.41.55.55,0,0,1,.4-.16A.53.53,0,0,1,13,5.4a.57.57,0,0,1,.17.41v1A3.14,3.14,0,0,1,15,7.68a2.61,2.61,0,0,1,.69,1.84,2.66,2.66,0,0,1-1.47,2.35,2.82,2.82,0,0,1,1.46,1,2.72,2.72,0,0,1,.54,1.7,2.85,2.85,0,0,1-.81,2.11,3.68,3.68,0,0,1-2.28,1v1A.57.57,0,0,1,13,19a.56.56,0,0,1-.41.15.59.59,0,0,1-.4-.15.57.57,0,0,1-.16-.42v-.93h-.77v.93a.6.6,0,0,1-.15.42.59.59,0,0,1-.41.15.58.58,0,0,1-.41-.15.61.61,0,0,1-.16-.42v-.93H9.6a1,1,0,0,1-.68-.25.9.9,0,0,1-.25-.67Zm3.19,3.69a2.86,2.86,0,0,0,1.73-.43,1.5,1.5,0,0,0,.6-1.27,1.37,1.37,0,0,0-.53-1.16,2.4,2.4,0,0,0-1.47-.4h-2v3.25Zm.43,4.93a3.11,3.11,0,0,0,1.81-.46,1.54,1.54,0,0,0,.62-1.32,1.53,1.53,0,0,0-.65-1.34,3.35,3.35,0,0,0-1.91-.44h-2v3.57Z"/></g></g></g></svg>
