<svg xmlns="http://www.w3.org/2000/svg" viewBox="0 0 16 16"><defs><style>.cls-1{fill:#000;}</style></defs><g id="Layer_2" data-name="Layer 2"><g id="Layer_4" data-name="Layer 4"><g id="pick"><path class="cls-1" d="M5.31,7.44l8.12,8.12a1.51,1.51,0,1,0,2.12-2.15L7.48,5.34C7,5.79,6,6.72,5.31,7.44Z"/><path class="cls-1" d="M.53,13a.32.32,0,0,0,.4.11.31.31,0,0,0,.18-.22A14.31,14.31,0,0,1,4.58,6.7c.51-.55,1.57-1.62,2.13-2.13a14.44,14.44,0,0,1,6.2-3.46.32.32,0,0,0,.25-.33A.35.35,0,0,0,13,.52C11.29-.57,8,.06,5,2.28a.48.48,0,0,1-.64,0L4,1.84A1.51,1.51,0,1,0,1.86,4l.38.37a.49.49,0,0,1,0,.64C.06,8-.57,11.3.53,13Z"/></g></g></g></svg>
